<svg width="197" height="29" viewBox="0 0 197 29" fill="none" xmlns="http://www.w3.org/2000/svg">
<path d="M1.29119 21.4851V8.3942H6.30256C7.24858 8.3942 8.0348 8.54335 8.66122 8.84164C9.2919 9.13568 9.76278 9.53837 10.0739 10.0497C10.3892 10.5611 10.5469 11.1406 10.5469 11.7884C10.5469 12.321 10.4446 12.777 10.2401 13.1563C10.0355 13.5313 9.76065 13.836 9.41548 14.0703C9.07031 14.3047 8.68466 14.473 8.25852 14.5753V14.7031C8.72301 14.7287 9.16832 14.8715 9.59446 15.1314C10.0249 15.3871 10.3764 15.7493 10.6491 16.2181C10.9219 16.6868 11.0582 17.2536 11.0582 17.9183C11.0582 18.5959 10.8942 19.2053 10.5661 19.7465C10.2379 20.2834 9.74361 20.7074 9.0831 21.0185C8.42259 21.3296 7.59162 21.4851 6.5902 21.4851H1.29119ZM3.66264 19.5036H6.21307C7.07386 19.5036 7.69389 19.3395 8.07315 19.0114C8.45668 18.679 8.64844 18.2529 8.64844 17.733C8.64844 17.3452 8.55256 16.9958 8.3608 16.6847C8.16903 16.3693 7.89631 16.1222 7.54261 15.9432C7.18892 15.76 6.76705 15.6683 6.27699 15.6683H3.66264V19.5036ZM3.66264 13.9617H6.00852C6.41761 13.9617 6.78622 13.8871 7.11435 13.7379C7.44247 13.5845 7.70028 13.3693 7.88778 13.0924C8.07955 12.8111 8.17543 12.4787 8.17543 12.0952C8.17543 11.5881 7.99645 11.1705 7.63849 10.8424C7.2848 10.5142 6.75852 10.3502 6.05966 10.3502H3.66264V13.9617ZM14.0972 25.1669C13.7819 25.1669 13.49 25.1414 13.2215 25.0902C12.9573 25.0433 12.7464 24.9879 12.5887 24.924L13.1256 23.1215C13.4623 23.2195 13.7627 23.2664 14.0269 23.2621C14.2911 23.2578 14.5233 23.1747 14.7236 23.0128C14.9282 22.8551 15.1008 22.5909 15.2414 22.2202L15.4395 21.6897L11.8792 11.6669H14.3337L16.5965 19.0817H16.6988L18.9679 11.6669H21.4289L17.4978 22.674C17.3145 23.1939 17.0716 23.6392 16.7691 24.01C16.4665 24.385 16.0958 24.6705 15.6569 24.8665C15.2222 25.0668 14.7023 25.1669 14.0972 25.1669ZM31.3133 21.4851H26.8772V8.3942H31.4028C32.7025 8.3942 33.819 8.65627 34.7522 9.18042C35.6897 9.70031 36.4099 10.4482 36.9127 11.424C37.4156 12.3999 37.667 13.5675 37.667 14.9269C37.667 16.2905 37.4134 17.4624 36.9063 18.4425C36.4035 19.4226 35.6769 20.1747 34.7266 20.6989C33.7806 21.223 32.6428 21.4851 31.3133 21.4851ZM29.2487 19.4333H31.1982C32.1102 19.4333 32.8708 19.2671 33.4802 18.9347C34.0896 18.598 34.5477 18.0973 34.8545 17.4326C35.1613 16.7635 35.3147 15.9283 35.3147 14.9269C35.3147 13.9254 35.1613 13.0945 34.8545 12.434C34.5477 11.7692 34.0938 11.2727 33.493 10.9446C32.8964 10.6122 32.1549 10.446 31.2685 10.446H29.2487V19.4333ZM39.5602 21.4851V8.3942H41.9316V14.4091H42.0914L47.1987 8.3942H50.0943L45.0318 14.2685L50.139 21.4851H47.2882L43.3826 15.8729L41.9316 17.586V21.4851H39.5602ZM53.1332 8.3942L56.5402 18.6982H56.6744L60.075 8.3942H62.683L58.0679 21.4851H55.1403L50.5317 8.3942H53.1332ZM72.7224 21.6641C71.8019 21.6641 70.9837 21.5064 70.2678 21.1911C69.5562 20.8757 68.9937 20.4368 68.5803 19.8743C68.167 19.3118 67.9475 18.662 67.9219 17.9247H70.3254C70.3467 18.2784 70.4638 18.5874 70.6769 18.8516C70.89 19.1115 71.1734 19.3139 71.5271 19.4588C71.8807 19.6037 72.2771 19.6762 72.716 19.6762C73.1847 19.6762 73.6002 19.5952 73.9624 19.4333C74.3246 19.2671 74.608 19.037 74.8126 18.7429C75.0171 18.4489 75.1173 18.1101 75.113 17.7266C75.1173 17.3303 75.015 16.9808 74.8062 16.6783C74.5974 16.3757 74.2948 16.1392 73.8985 15.9688C73.5065 15.7983 73.0334 15.7131 72.4795 15.7131H71.3225V13.885H72.4795C72.9354 13.885 73.3339 13.8061 73.6748 13.6485C74.02 13.4908 74.2906 13.2692 74.4866 12.9837C74.6826 12.6939 74.7785 12.3594 74.7742 11.9801C74.7785 11.6094 74.6954 11.2877 74.5249 11.0149C74.3587 10.7379 74.1222 10.5227 73.8154 10.3693C73.5129 10.2159 73.157 10.1392 72.7479 10.1392C72.3474 10.1392 71.9766 10.2117 71.6357 10.3566C71.2948 10.5014 71.02 10.7081 70.8111 10.9766C70.6023 11.2408 70.4915 11.5561 70.4788 11.9226H68.1968C68.2138 11.1897 68.4248 10.5462 68.8296 9.99221C69.2387 9.43397 69.7842 8.99931 70.466 8.68823C71.1478 8.37289 71.9127 8.21522 72.7607 8.21522C73.6343 8.21522 74.3928 8.37928 75.0363 8.70741C75.684 9.03127 76.1847 9.46806 76.5384 10.0178C76.8921 10.5675 77.069 11.1747 77.069 11.8395C77.0732 12.5767 76.8559 13.1946 76.417 13.6932C75.9823 14.1918 75.4113 14.5178 74.7039 14.6712V14.7735C75.6244 14.9013 76.3296 15.2422 76.8197 15.7962C77.314 16.3459 77.559 17.0299 77.5548 17.848C77.5548 18.581 77.3459 19.2372 76.9283 19.8168C76.515 20.3921 75.944 20.8438 75.2153 21.1719C74.4908 21.5 73.6599 21.6641 72.7224 21.6641ZM90.8831 10.4782L93.1046 14.5413L95.3618 10.4782H98.1064L94.7886 15.9817L98.1637 21.4851H95.4335L93.1046 17.5223L90.7971 21.4851H88.0454L91.3991 15.9817L88.1314 10.4782H90.8831Z" fill="#111827"/>
<path fill-rule="evenodd" clip-rule="evenodd" d="M108.609 9.93497V26.2634V27.5982H109.944H129.687C132.53 27.5982 134.836 25.2932 134.836 22.4497V2.70688V1.37207H133.501H116.541V4.04169H132.166V22.4497C132.166 23.8188 131.056 24.9286 129.687 24.9286H111.279V9.93497H108.609Z" fill="#111827"/>
<path d="M108.609 9.93497V8.96124H107.636V9.93497H108.609ZM108.609 27.5982H107.636V28.572H108.609V27.5982ZM134.836 1.37207H135.809V0.398348H134.836V1.37207ZM116.541 1.37207V0.398348H115.567V1.37207H116.541ZM116.541 4.04169H115.567V5.01541H116.541V4.04169ZM132.166 4.04169H133.14V3.06797H132.166V4.04169ZM111.279 24.9286H110.305V25.9023H111.279V24.9286ZM111.279 9.93497H112.253V8.96124H111.279V9.93497ZM109.583 26.2634V9.93497H107.636V26.2634H109.583ZM109.583 27.5982V26.2634H107.636V27.5982H109.583ZM109.944 26.6245H108.609V28.572H109.944V26.6245ZM129.687 26.6245H109.944V28.572H129.687V26.6245ZM133.862 22.4497C133.862 24.7554 131.993 26.6245 129.687 26.6245V28.572C133.068 28.572 135.809 25.8309 135.809 22.4497H133.862ZM133.862 2.70688V22.4497H135.809V2.70688H133.862ZM133.862 1.37207V2.70688H135.809V1.37207H133.862ZM133.501 2.34579H134.836V0.398348H133.501V2.34579ZM116.541 2.34579H133.501V0.398348H116.541V2.34579ZM115.567 1.37207V4.04169H117.514V1.37207H115.567ZM132.166 3.06797H116.541V5.01541H132.166V3.06797ZM133.14 22.4497V4.04169H131.192V22.4497H133.14ZM129.687 25.9023C131.594 25.9023 133.14 24.3565 133.14 22.4497H131.192C131.192 23.281 130.518 23.9549 129.687 23.9549V25.9023ZM111.279 25.9023H129.687V23.9549H111.279V25.9023ZM110.305 9.93497V24.9286H112.253V9.93497H110.305ZM111.279 8.96124H108.609V10.9087H111.279V8.96124Z" fill="#111827"/>
<path d="M147.197 13.6631C144.038 13.6631 141.991 11.4678 141.991 8.07088C141.991 4.70367 144.112 2.46381 147.286 2.46381C149.852 2.46381 151.766 3.962 152.137 6.29086H150.134C149.763 5.03001 148.681 4.28833 147.242 4.28833C145.239 4.28833 143.978 5.74202 143.978 8.05604C143.978 10.3552 145.254 11.8386 147.242 11.8386C148.71 11.8386 149.838 11.0672 150.194 9.86573H152.166C151.751 12.1501 149.763 13.6631 147.197 13.6631ZM152.356 9.8064C152.356 7.52204 154.003 5.94969 156.272 5.94969C158.542 5.94969 160.188 7.52204 160.188 9.8064C160.188 12.0908 158.542 13.6631 156.272 13.6631C154.003 13.6631 152.356 12.0908 152.356 9.8064ZM154.166 9.8064C154.166 11.1414 155.026 12.0463 156.272 12.0463C157.518 12.0463 158.379 11.1414 158.379 9.8064C158.379 8.47138 157.518 7.56654 156.272 7.56654C155.026 7.56654 154.166 8.47138 154.166 9.8064ZM162.616 13.4851H160.807V6.15735H162.468L162.616 7.0177C162.987 6.40952 163.729 5.93485 164.782 5.93485C165.895 5.93485 166.666 6.48369 167.052 7.3292C167.423 6.48369 168.283 5.93485 169.395 5.93485C171.175 5.93485 172.154 7.00286 172.154 8.69388V13.4851H170.36V9.16856C170.36 8.11538 169.796 7.56654 168.936 7.56654C168.06 7.56654 167.393 8.13021 167.393 9.33173V13.4851H165.583V9.15372C165.583 8.13021 165.034 7.58137 164.174 7.58137C163.314 7.58137 162.616 8.14504 162.616 9.33173V13.4851ZM174.925 13.4851H173.115V6.15735H174.776L174.925 7.0177C175.296 6.40952 176.037 5.93485 177.091 5.93485C178.203 5.93485 178.974 6.48369 179.36 7.3292C179.731 6.48369 180.591 5.93485 181.704 5.93485C183.484 5.93485 184.463 7.00286 184.463 8.69388V13.4851H182.668V9.16856C182.668 8.11538 182.104 7.56654 181.244 7.56654C180.369 7.56654 179.701 8.13021 179.701 9.33173V13.4851H177.892V9.15372C177.892 8.13021 177.343 7.58137 176.482 7.58137C175.622 7.58137 174.925 8.14504 174.925 9.33173V13.4851ZM186.328 4.68884C185.705 4.68884 185.216 4.19933 185.216 3.59116C185.216 2.98298 185.705 2.50831 186.328 2.50831C186.922 2.50831 187.411 2.98298 187.411 3.59116C187.411 4.19933 186.922 4.68884 186.328 4.68884ZM185.423 13.4851V6.15735H187.233V13.4851H185.423ZM190.779 13.4851H188.969V7.67037H187.56V6.15735H188.969V3.873H190.779V6.15735H192.203V7.67037H190.779V13.4851ZM141.783 25.2601H143.504C143.518 25.8979 143.993 26.2984 144.824 26.2984C145.669 26.2984 146.129 25.9573 146.129 25.4232C146.129 25.0524 145.936 24.7854 145.284 24.6371L143.963 24.3256C142.643 24.0289 142.005 23.4059 142.005 22.234C142.005 20.7952 143.222 19.9349 144.913 19.9349C146.559 19.9349 147.672 20.8842 147.687 22.3082H145.966C145.951 21.6852 145.536 21.2847 144.839 21.2847C144.127 21.2847 143.711 21.611 143.711 22.1599C143.711 22.5752 144.038 22.8422 144.661 22.9906L145.981 23.3021C147.212 23.5839 147.835 24.1476 147.835 25.2749C147.835 26.7583 146.574 27.6779 144.764 27.6779C142.94 27.6779 141.783 26.6989 141.783 25.2601ZM150.889 27.4851H149.079V21.6704H147.67V20.1574H149.079V17.873H150.889V20.1574H152.313V21.6704H150.889V27.4851ZM157.592 20.1574H159.401V27.4851H157.725L157.592 26.5061C157.147 27.2033 156.197 27.6779 155.218 27.6779C153.527 27.6779 152.533 26.5358 152.533 24.7409V20.1574H154.343V24.1031C154.343 25.4974 154.892 26.0611 155.901 26.0611C157.043 26.0611 157.592 25.3936 157.592 23.9992V20.1574ZM163.321 27.6779C161.2 27.6779 159.879 26.1204 159.879 23.8509C159.879 21.5665 161.214 19.9349 163.425 19.9349C164.448 19.9349 165.353 20.365 165.813 21.0919V16.449H167.608V27.4851H165.946L165.828 26.3429C165.383 27.1884 164.433 27.6779 163.321 27.6779ZM163.721 26.0166C164.982 26.0166 165.798 25.1117 165.798 23.7916C165.798 22.4714 164.982 21.5517 163.721 21.5517C162.461 21.5517 161.689 22.4862 161.689 23.7916C161.689 25.0969 162.461 26.0166 163.721 26.0166ZM169.583 18.6888C168.96 18.6888 168.47 18.1993 168.47 17.5912C168.47 16.983 168.96 16.5083 169.583 16.5083C170.176 16.5083 170.666 16.983 170.666 17.5912C170.666 18.1993 170.176 18.6888 169.583 18.6888ZM168.678 27.4851V20.1574H170.488V27.4851H168.678ZM171.111 23.8064C171.111 21.522 172.758 19.9497 175.027 19.9497C177.297 19.9497 178.943 21.522 178.943 23.8064C178.943 26.0908 177.297 27.6631 175.027 27.6631C172.758 27.6631 171.111 26.0908 171.111 23.8064ZM172.921 23.8064C172.921 25.1414 173.781 26.0463 175.027 26.0463C176.273 26.0463 177.134 25.1414 177.134 23.8064C177.134 22.4714 176.273 21.5665 175.027 21.5665C173.781 21.5665 172.921 22.4714 172.921 23.8064ZM180.329 27.6631C179.677 27.6631 179.128 27.1291 179.128 26.4913C179.128 25.8386 179.677 25.3046 180.329 25.3046C180.982 25.3046 181.531 25.8386 181.531 26.4913C181.531 27.1291 180.982 27.6631 180.329 27.6631Z" fill="#111827"/>
</svg>
