<svg width="196" height="29" viewBox="0 0 196 29" fill="none" xmlns="http://www.w3.org/2000/svg">
<path d="M1.29119 21.4851V8.3942H6.30256C7.24858 8.3942 8.0348 8.54335 8.66122 8.84164C9.2919 9.13568 9.76278 9.53837 10.0739 10.0497C10.3892 10.5611 10.5469 11.1406 10.5469 11.7884C10.5469 12.321 10.4446 12.777 10.2401 13.1563C10.0355 13.5313 9.76065 13.836 9.41548 14.0703C9.07031 14.3047 8.68466 14.473 8.25852 14.5753V14.7031C8.72301 14.7287 9.16832 14.8715 9.59446 15.1314C10.0249 15.3871 10.3764 15.7493 10.6491 16.2181C10.9219 16.6868 11.0582 17.2536 11.0582 17.9183C11.0582 18.5959 10.8942 19.2053 10.5661 19.7465C10.2379 20.2834 9.74361 20.7074 9.0831 21.0185C8.42259 21.3296 7.59162 21.4851 6.5902 21.4851H1.29119ZM3.66264 19.5036H6.21307C7.07386 19.5036 7.69389 19.3395 8.07315 19.0114C8.45668 18.679 8.64844 18.2529 8.64844 17.733C8.64844 17.3452 8.55256 16.9958 8.3608 16.6847C8.16903 16.3693 7.89631 16.1222 7.54261 15.9432C7.18892 15.76 6.76705 15.6683 6.27699 15.6683H3.66264V19.5036ZM3.66264 13.9617H6.00852C6.41761 13.9617 6.78622 13.8871 7.11435 13.7379C7.44247 13.5845 7.70028 13.3693 7.88778 13.0924C8.07955 12.8111 8.17543 12.4787 8.17543 12.0952C8.17543 11.5881 7.99645 11.1705 7.63849 10.8424C7.2848 10.5142 6.75852 10.3502 6.05966 10.3502H3.66264V13.9617ZM14.0972 25.1669C13.7819 25.1669 13.49 25.1414 13.2215 25.0902C12.9573 25.0433 12.7464 24.9879 12.5887 24.924L13.1256 23.1215C13.4623 23.2195 13.7627 23.2664 14.0269 23.2621C14.2911 23.2578 14.5233 23.1747 14.7236 23.0128C14.9282 22.8551 15.1008 22.5909 15.2414 22.2202L15.4395 21.6897L11.8792 11.6669H14.3337L16.5965 19.0817H16.6988L18.9679 11.6669H21.4289L17.4978 22.674C17.3145 23.1939 17.0716 23.6392 16.7691 24.01C16.4665 24.385 16.0958 24.6705 15.6569 24.8665C15.2222 25.0668 14.7023 25.1669 14.0972 25.1669ZM31.3133 21.4851H26.8772V8.3942H31.4028C32.7025 8.3942 33.819 8.65627 34.7522 9.18042C35.6897 9.70031 36.4099 10.4482 36.9127 11.424C37.4156 12.3999 37.667 13.5675 37.667 14.9269C37.667 16.2905 37.4134 17.4624 36.9063 18.4425C36.4035 19.4226 35.6769 20.1747 34.7266 20.6989C33.7806 21.223 32.6428 21.4851 31.3133 21.4851ZM29.2487 19.4333H31.1982C32.1102 19.4333 32.8708 19.2671 33.4802 18.9347C34.0896 18.598 34.5477 18.0973 34.8545 17.4326C35.1613 16.7635 35.3147 15.9283 35.3147 14.9269C35.3147 13.9254 35.1613 13.0945 34.8545 12.434C34.5477 11.7692 34.0938 11.2727 33.493 10.9446C32.8964 10.6122 32.1549 10.446 31.2685 10.446H29.2487V19.4333ZM39.5602 21.4851V8.3942H41.9316V14.4091H42.0914L47.1987 8.3942H50.0943L45.0318 14.2685L50.139 21.4851H47.2882L43.3826 15.8729L41.9316 17.586V21.4851H39.5602ZM53.1332 8.3942L56.5402 18.6982H56.6744L60.075 8.3942H62.683L58.0679 21.4851H55.1403L50.5317 8.3942H53.1332ZM68.0242 21.4851V19.772L72.569 15.3168C73.0036 14.8779 73.3658 14.4879 73.6556 14.147C73.9454 13.8061 74.1627 13.4759 74.3076 13.1563C74.4525 12.8367 74.5249 12.4958 74.5249 12.1335C74.5249 11.7202 74.4312 11.3665 74.2437 11.0725C74.0562 10.7742 73.7984 10.5441 73.4702 10.3821C73.1421 10.2202 72.7692 10.1392 72.3516 10.1392C71.9212 10.1392 71.5441 10.2287 71.2202 10.4077C70.8964 10.5824 70.645 10.8317 70.466 11.1556C70.2913 11.4794 70.2039 11.8651 70.2039 12.3125H67.9475C67.9475 11.4816 68.1371 10.7593 68.5164 10.1456C68.8957 9.53198 69.4177 9.05684 70.0825 8.72019C70.7515 8.38354 71.5185 8.21522 72.3836 8.21522C73.2614 8.21522 74.0327 8.37928 74.6975 8.70741C75.3623 9.03553 75.8779 9.48511 76.2444 10.0561C76.6151 10.6272 76.8005 11.2791 76.8005 12.0121C76.8005 12.5022 76.7067 12.9837 76.5192 13.4567C76.3317 13.9297 76.0015 14.4539 75.5285 15.0291C75.0597 15.6044 74.4013 16.3012 73.5533 17.1193L71.2969 19.4141V19.5036H76.9986V21.4851H68.0242ZM90.3382 10.4782L92.5596 14.5413L94.8169 10.4782H97.5615L94.2436 15.9817L97.6188 21.4851H94.8886L92.5596 17.5223L90.2522 21.4851H87.5005L90.8541 15.9817L87.5865 10.4782H90.3382Z" fill="#111827"/>
<path fill-rule="evenodd" clip-rule="evenodd" d="M107.609 9.93497V26.2634V27.5982H108.944H128.687C131.53 27.5982 133.836 25.2932 133.836 22.4497V2.70688V1.37207H132.501H115.541V4.04169H131.166V22.4497C131.166 23.8188 130.056 24.9286 128.687 24.9286H110.279V9.93497H107.609Z" fill="#111827"/>
<path d="M107.609 9.93497V8.96124H106.636V9.93497H107.609ZM107.609 27.5982H106.636V28.572H107.609V27.5982ZM133.836 1.37207H134.809V0.398348H133.836V1.37207ZM115.541 1.37207V0.398348H114.567V1.37207H115.541ZM115.541 4.04169H114.567V5.01541H115.541V4.04169ZM131.166 4.04169H132.14V3.06797H131.166V4.04169ZM110.279 24.9286H109.305V25.9023H110.279V24.9286ZM110.279 9.93497H111.253V8.96124H110.279V9.93497ZM108.583 26.2634V9.93497H106.636V26.2634H108.583ZM108.583 27.5982V26.2634H106.636V27.5982H108.583ZM108.944 26.6245H107.609V28.572H108.944V26.6245ZM128.687 26.6245H108.944V28.572H128.687V26.6245ZM132.862 22.4497C132.862 24.7554 130.993 26.6245 128.687 26.6245V28.572C132.068 28.572 134.809 25.8309 134.809 22.4497H132.862ZM132.862 2.70688V22.4497H134.809V2.70688H132.862ZM132.862 1.37207V2.70688H134.809V1.37207H132.862ZM132.501 2.34579H133.836V0.398348H132.501V2.34579ZM115.541 2.34579H132.501V0.398348H115.541V2.34579ZM114.567 1.37207V4.04169H116.514V1.37207H114.567ZM131.166 3.06797H115.541V5.01541H131.166V3.06797ZM132.14 22.4497V4.04169H130.192V22.4497H132.14ZM128.687 25.9023C130.594 25.9023 132.14 24.3565 132.14 22.4497H130.192C130.192 23.281 129.518 23.9549 128.687 23.9549V25.9023ZM110.279 25.9023H128.687V23.9549H110.279V25.9023ZM109.305 9.93497V24.9286H111.253V9.93497H109.305ZM110.279 8.96124H107.609V10.9087H110.279V8.96124Z" fill="#111827"/>
<path d="M146.197 13.6631C143.038 13.6631 140.991 11.4678 140.991 8.07088C140.991 4.70367 143.112 2.46381 146.286 2.46381C148.852 2.46381 150.766 3.962 151.137 6.29086H149.134C148.763 5.03001 147.681 4.28833 146.242 4.28833C144.239 4.28833 142.978 5.74202 142.978 8.05604C142.978 10.3552 144.254 11.8386 146.242 11.8386C147.71 11.8386 148.838 11.0672 149.194 9.86573H151.166C150.751 12.1501 148.763 13.6631 146.197 13.6631ZM151.356 9.8064C151.356 7.52204 153.003 5.94969 155.272 5.94969C157.542 5.94969 159.188 7.52204 159.188 9.8064C159.188 12.0908 157.542 13.6631 155.272 13.6631C153.003 13.6631 151.356 12.0908 151.356 9.8064ZM153.166 9.8064C153.166 11.1414 154.026 12.0463 155.272 12.0463C156.518 12.0463 157.379 11.1414 157.379 9.8064C157.379 8.47138 156.518 7.56654 155.272 7.56654C154.026 7.56654 153.166 8.47138 153.166 9.8064ZM161.616 13.4851H159.807V6.15735H161.468L161.616 7.0177C161.987 6.40952 162.729 5.93485 163.782 5.93485C164.895 5.93485 165.666 6.48369 166.052 7.3292C166.423 6.48369 167.283 5.93485 168.395 5.93485C170.175 5.93485 171.154 7.00286 171.154 8.69388V13.4851H169.36V9.16856C169.36 8.11538 168.796 7.56654 167.936 7.56654C167.06 7.56654 166.393 8.13021 166.393 9.33173V13.4851H164.583V9.15372C164.583 8.13021 164.034 7.58137 163.174 7.58137C162.314 7.58137 161.616 8.14504 161.616 9.33173V13.4851ZM173.925 13.4851H172.115V6.15735H173.776L173.925 7.0177C174.296 6.40952 175.037 5.93485 176.091 5.93485C177.203 5.93485 177.974 6.48369 178.36 7.3292C178.731 6.48369 179.591 5.93485 180.704 5.93485C182.484 5.93485 183.463 7.00286 183.463 8.69388V13.4851H181.668V9.16856C181.668 8.11538 181.104 7.56654 180.244 7.56654C179.369 7.56654 178.701 8.13021 178.701 9.33173V13.4851H176.892V9.15372C176.892 8.13021 176.343 7.58137 175.482 7.58137C174.622 7.58137 173.925 8.14504 173.925 9.33173V13.4851ZM185.328 4.68884C184.705 4.68884 184.216 4.19933 184.216 3.59116C184.216 2.98298 184.705 2.50831 185.328 2.50831C185.922 2.50831 186.411 2.98298 186.411 3.59116C186.411 4.19933 185.922 4.68884 185.328 4.68884ZM184.423 13.4851V6.15735H186.233V13.4851H184.423ZM189.779 13.4851H187.969V7.67037H186.56V6.15735H187.969V3.873H189.779V6.15735H191.203V7.67037H189.779V13.4851ZM140.783 25.2601H142.504C142.518 25.8979 142.993 26.2984 143.824 26.2984C144.669 26.2984 145.129 25.9573 145.129 25.4232C145.129 25.0524 144.936 24.7854 144.284 24.6371L142.963 24.3256C141.643 24.0289 141.005 23.4059 141.005 22.234C141.005 20.7952 142.222 19.9349 143.913 19.9349C145.559 19.9349 146.672 20.8842 146.687 22.3082H144.966C144.951 21.6852 144.536 21.2847 143.839 21.2847C143.127 21.2847 142.711 21.611 142.711 22.1599C142.711 22.5752 143.038 22.8422 143.661 22.9906L144.981 23.3021C146.212 23.5839 146.835 24.1476 146.835 25.2749C146.835 26.7583 145.574 27.6779 143.764 27.6779C141.94 27.6779 140.783 26.6989 140.783 25.2601ZM149.889 27.4851H148.079V21.6704H146.67V20.1574H148.079V17.873H149.889V20.1574H151.313V21.6704H149.889V27.4851ZM156.592 20.1574H158.401V27.4851H156.725L156.592 26.5061C156.147 27.2033 155.197 27.6779 154.218 27.6779C152.527 27.6779 151.533 26.5358 151.533 24.7409V20.1574H153.343V24.1031C153.343 25.4974 153.892 26.0611 154.901 26.0611C156.043 26.0611 156.592 25.3936 156.592 23.9992V20.1574ZM162.321 27.6779C160.2 27.6779 158.879 26.1204 158.879 23.8509C158.879 21.5665 160.214 19.9349 162.425 19.9349C163.448 19.9349 164.353 20.365 164.813 21.0919V16.449H166.608V27.4851H164.946L164.828 26.3429C164.383 27.1884 163.433 27.6779 162.321 27.6779ZM162.721 26.0166C163.982 26.0166 164.798 25.1117 164.798 23.7916C164.798 22.4714 163.982 21.5517 162.721 21.5517C161.461 21.5517 160.689 22.4862 160.689 23.7916C160.689 25.0969 161.461 26.0166 162.721 26.0166ZM168.583 18.6888C167.96 18.6888 167.47 18.1993 167.47 17.5912C167.47 16.983 167.96 16.5083 168.583 16.5083C169.176 16.5083 169.666 16.983 169.666 17.5912C169.666 18.1993 169.176 18.6888 168.583 18.6888ZM167.678 27.4851V20.1574H169.488V27.4851H167.678ZM170.111 23.8064C170.111 21.522 171.758 19.9497 174.027 19.9497C176.297 19.9497 177.943 21.522 177.943 23.8064C177.943 26.0908 176.297 27.6631 174.027 27.6631C171.758 27.6631 170.111 26.0908 170.111 23.8064ZM171.921 23.8064C171.921 25.1414 172.781 26.0463 174.027 26.0463C175.273 26.0463 176.134 25.1414 176.134 23.8064C176.134 22.4714 175.273 21.5665 174.027 21.5665C172.781 21.5665 171.921 22.4714 171.921 23.8064ZM179.329 27.6631C178.677 27.6631 178.128 27.1291 178.128 26.4913C178.128 25.8386 178.677 25.3046 179.329 25.3046C179.982 25.3046 180.531 25.8386 180.531 26.4913C180.531 27.1291 179.982 27.6631 179.329 27.6631Z" fill="#111827"/>
</svg>
