<svg width="18" height="19" viewBox="0 0 18 19" fill="none" xmlns="http://www.w3.org/2000/svg">
<path d="M7.56 8.59971C7.5975 8.35221 7.68 8.13471 7.785 7.94721C7.89 7.75971 8.04 7.60221 8.2275 7.48221C8.4075 7.36971 8.6325 7.31721 8.91 7.30971C9.0825 7.31721 9.24 7.34721 9.3825 7.40721C9.5325 7.47471 9.6675 7.56471 9.7725 7.67721C9.8775 7.78971 9.96 7.92471 10.0275 8.07471C10.095 8.22471 10.125 8.38971 10.1325 8.55471H11.475C11.46 8.20221 11.3925 7.87971 11.265 7.58721C11.1375 7.29471 10.965 7.03971 10.74 6.82971C10.515 6.61971 10.245 6.45471 9.93 6.33471C9.615 6.21471 9.27 6.16221 8.8875 6.16221C8.4 6.16221 7.9725 6.24471 7.6125 6.41721C7.2525 6.58971 6.9525 6.81471 6.7125 7.10721C6.4725 7.39971 6.2925 7.73721 6.18 8.12721C6.0675 8.51721 6 8.92221 6 9.35721V9.55971C6 9.99471 6.06 10.3997 6.1725 10.7897C6.285 11.1797 6.465 11.5172 6.705 11.8022C6.945 12.0872 7.245 12.3197 7.605 12.4847C7.965 12.6497 8.3925 12.7397 8.88 12.7397C9.2325 12.7397 9.5625 12.6797 9.87 12.5672C10.1775 12.4547 10.4475 12.2972 10.68 12.0947C10.9125 11.8922 11.1 11.6597 11.235 11.3897C11.37 11.1197 11.4525 10.8347 11.46 10.5272H10.1175C10.11 10.6847 10.0725 10.8272 10.005 10.9622C9.9375 11.0972 9.8475 11.2097 9.735 11.3072C9.6225 11.4047 9.495 11.4797 9.345 11.5322C9.2025 11.5847 9.0525 11.5997 8.895 11.6072C8.625 11.5997 8.4 11.5472 8.2275 11.4347C8.04 11.3147 7.89 11.1572 7.785 10.9697C7.68 10.7822 7.5975 10.5572 7.56 10.3097C7.5225 10.0622 7.5 9.80721 7.5 9.55971V9.35721C7.5 9.09471 7.5225 8.84721 7.56 8.59971ZM9 1.95471C4.86 1.95471 1.5 5.31471 1.5 9.45471C1.5 13.5947 4.86 16.9547 9 16.9547C13.14 16.9547 16.5 13.5947 16.5 9.45471C16.5 5.31471 13.14 1.95471 9 1.95471ZM9 15.4547C5.6925 15.4547 3 12.7622 3 9.45471C3 6.14721 5.6925 3.45471 9 3.45471C12.3075 3.45471 15 6.14721 15 9.45471C15 12.7622 12.3075 15.4547 9 15.4547Z" fill="white"/>
</svg>
