<svg width="52" height="52" viewBox="0 0 52 52" fill="none" xmlns="http://www.w3.org/2000/svg">
<path d="M34.8822 20.4848C34.9057 20.2726 34.8872 20.058 34.8277 19.853C34.7682 19.6481 34.6689 19.4568 34.5355 19.2902C34.4022 19.1237 34.2373 18.985 34.0503 18.8821C33.8633 18.7792 33.6579 18.7142 33.4458 18.6908C33.2336 18.6673 33.019 18.6858 32.814 18.7453C32.6091 18.8048 32.4178 18.9041 32.2512 19.0374C32.0847 19.1708 31.946 19.3357 31.8431 19.5227C31.7402 19.7097 31.6752 19.9151 31.6518 20.1272C31.5188 21.3203 31.0118 22.4408 30.2032 23.3281C29.3947 24.2155 28.3261 24.8242 27.1505 25.0672C26.7281 25.1543 26.3577 25.4056 26.1206 25.7658C25.8835 26.126 25.7992 26.5656 25.8863 26.988C25.9733 27.4104 26.2246 27.7808 26.5848 28.0179C26.945 28.255 27.3846 28.3393 27.807 28.2522C29.6554 27.8705 31.3356 26.9133 32.6066 25.518C33.8776 24.1226 34.6742 22.3607 34.8822 20.4848ZM14.625 3.25C14.194 3.25 13.7807 3.4212 13.476 3.72595C13.1712 4.0307 13 4.44402 13 4.875V21.125C12.9989 24.2921 14.1541 27.3508 16.2485 29.7265C18.343 32.1022 21.2327 33.6316 24.375 34.0275V45.5H19.5C19.069 45.5 18.6557 45.6712 18.351 45.976C18.0462 46.2807 17.875 46.694 17.875 47.125C17.875 47.556 18.0462 47.9693 18.351 48.274C18.6557 48.5788 19.069 48.75 19.5 48.75H32.5C32.931 48.75 33.3443 48.5788 33.649 48.274C33.9538 47.9693 34.125 47.556 34.125 47.125C34.125 46.694 33.9538 46.2807 33.649 45.976C33.3443 45.6712 32.931 45.5 32.5 45.5H27.625V34.0275C30.7673 33.6316 33.657 32.1022 35.7515 29.7265C37.8459 27.3508 39.0011 24.2921 39 21.125V4.875C39 4.44402 38.8288 4.0307 38.524 3.72595C38.2193 3.4212 37.806 3.25 37.375 3.25H14.625ZM16.25 13V6.5H35.75V13H16.25ZM16.25 16.25H35.75V21.125C35.75 23.7109 34.7228 26.1908 32.8943 28.0193C31.0658 29.8478 28.5859 30.875 26 30.875C23.4141 30.875 20.9342 29.8478 19.1057 28.0193C17.2772 26.1908 16.25 23.7109 16.25 21.125V16.25Z" fill="currentColor"/>
</svg>
