<svg width="215" height="23" viewBox="0 0 215 23" fill="none" xmlns="http://www.w3.org/2000/svg">
<path fill-rule="evenodd" clip-rule="evenodd" d="M12.0293 21.2888C12.5303 21.2888 12.9364 20.8931 12.9364 20.405L12.9364 10.7493C12.9364 10.3493 13.2208 10.0027 13.6212 9.91473C14.0216 9.82664 14.4312 10.0206 14.6075 10.3817L15.3329 11.8678C15.6783 12.5752 16.2411 12.7702 16.5955 12.7309C16.7741 12.7111 16.9208 12.6353 17.0271 12.5123C17.1329 12.39 17.2438 12.1675 17.2438 11.7852C17.2438 11.5904 17.183 11.3791 17.0192 11.0913C16.8537 10.8006 16.6221 10.4948 16.3113 10.0847C16.2969 10.0657 16.2824 10.0466 16.2677 10.0272C15.6193 9.17125 14.781 8.04206 14.225 6.34823C14.1673 6.1724 14.1106 5.98955 14.0553 5.80256C13.7589 4.80068 13.5484 4.09089 13.3497 3.55753C13.1507 3.02347 12.9928 2.75149 12.8421 2.58428C12.5773 2.29045 12.3477 2.1221 11.9845 1.95558C11.7673 1.85587 11.4779 1.78652 10.9734 1.74949C10.4605 1.71177 9.80202 1.7112 8.85898 1.7112C7.40274 1.7112 6.3695 1.71201 5.56295 1.78365C4.76922 1.85403 4.27985 1.98778 3.89225 2.20501C3.35431 2.50654 2.90021 2.9317 2.56949 3.44345C2.33128 3.81214 2.17477 4.28329 2.07086 5.05322C1.96541 5.83556 1.92337 6.84146 1.86554 8.2593L1.78503 10.2289C1.7405 11.3178 1.74584 11.6088 1.83835 11.8436C1.96149 12.1561 2.3105 12.5099 2.62602 12.6423C2.72755 12.6848 2.8254 12.7121 2.97063 12.7294C2.96149 12.4643 2.96149 12.1595 2.96149 11.8126L2.96149 10.7493C2.96149 10.2767 3.35467 9.89368 3.83965 9.89368C4.32462 9.89368 4.71768 10.2767 4.71768 10.7493L4.71768 11.7852C4.71768 12.2791 4.71816 12.6084 4.73526 12.8629C4.75105 13.0976 4.77848 13.2135 4.80639 13.2864C4.81007 13.295 4.81352 13.3036 4.81696 13.3123C4.94224 13.6091 5.17238 13.8341 5.44717 13.9497C5.48422 13.9653 5.6076 13.9981 5.91682 14.0148C5.99734 14.0191 6.08307 14.0222 6.17522 14.0243C6.16632 13.8008 6.16655 13.558 6.16667 13.2904C6.16667 13.2502 6.16679 13.2093 6.16679 13.1679L6.16679 11.6929C6.16679 11.2204 6.55985 10.8374 7.04483 10.8374C7.52981 10.8374 7.92299 11.2204 7.92299 11.6929L7.92299 13.1679C7.92299 14.0059 7.93213 14.2399 7.98308 14.4079C8.12379 14.8713 8.49572 15.2338 8.97131 15.3708C9.06002 15.3964 9.16654 15.4111 9.36592 15.4195L9.36592 12.3031C9.36592 11.8306 9.75904 11.4476 10.244 11.4476C10.729 11.4476 11.1221 11.8306 11.1221 12.3031L11.1221 20.405C11.1221 20.8931 11.5283 21.2888 12.0293 21.2888ZM12.0293 23C10.5583 23 9.36592 21.8382 9.36592 20.405L9.36592 17.1324C9.032 17.1198 8.74011 17.0886 8.47316 17.0117C7.73952 16.8002 7.11786 16.345 6.7052 15.7402C6.38185 15.7399 6.08129 15.7375 5.81968 15.7233C5.47531 15.7048 5.08902 15.6629 4.75117 15.5208C4.22285 15.2986 3.78015 14.9296 3.46713 14.4681C2.90971 14.4609 2.42581 14.4212 1.93181 14.214C1.18143 13.8994 0.491606 13.2 0.198767 12.4569C-0.040514 11.8496 -0.0121346 11.1734 0.0238476 10.3139C0.0259857 10.2635 0.0281239 10.2125 0.0301418 10.1608L0.112434 8.14925C0.168247 6.78282 0.212542 5.69894 0.329628 4.83035C0.449684 3.94036 0.655005 3.1947 1.08334 2.53184C1.56653 1.78388 2.23022 1.16253 3.01647 0.721741C3.7133 0.3312 4.48612 0.160999 5.40358 0.079464C6.29908 0 7.41236 0 8.81587 0H8.89377C9.79388 0 10.5188 0 11.1056 0.0431252C11.7084 0.0875168 12.2391 0.181126 12.7324 0.407331C13.3137 0.673901 13.7379 0.984859 14.1618 1.45521C14.5292 1.863 14.7769 2.3736 15.0005 2.97367C15.2219 3.56799 15.4484 4.33366 15.7337 5.2977L15.7428 5.32864C15.7942 5.50229 15.846 5.66916 15.8978 5.82693C16.3619 7.24098 17.0539 8.18352 17.6807 9.01105C17.7035 9.04107 17.7265 9.07132 17.7495 9.10168C18.0341 9.47681 18.3318 9.86907 18.5551 10.2616C18.8058 10.7021 19 11.203 19 11.7852C19 12.5034 18.7844 13.1359 18.3702 13.6149C17.9565 14.0932 17.3897 14.365 16.7941 14.4311C16.0566 14.5128 15.306 14.2844 14.6926 13.7961L14.6926 20.405C14.6926 21.8382 13.5002 23 12.0293 23Z" fill="white"/>
<path fill-rule="evenodd" clip-rule="evenodd" d="M208.029 21.2888C208.53 21.2888 208.936 20.8931 208.936 20.405L208.936 10.7493C208.936 10.3493 209.221 10.0027 209.621 9.91473C210.022 9.82664 210.431 10.0206 210.608 10.3817L211.333 11.8678C211.678 12.5752 212.241 12.7702 212.596 12.7309C212.774 12.7111 212.921 12.6353 213.027 12.5123C213.133 12.39 213.244 12.1675 213.244 11.7852C213.244 11.5904 213.183 11.3791 213.019 11.0913C212.854 10.8006 212.622 10.4948 212.311 10.0847C212.297 10.0657 212.282 10.0466 212.268 10.0272C211.619 9.17125 210.781 8.04206 210.225 6.34823C210.167 6.1724 210.111 5.98955 210.055 5.80256C209.759 4.80068 209.548 4.09089 209.35 3.55753C209.151 3.02347 208.993 2.75149 208.842 2.58428C208.577 2.29045 208.348 2.1221 207.984 1.95558C207.767 1.85587 207.478 1.78652 206.973 1.74949C206.46 1.71177 205.802 1.7112 204.859 1.7112C203.403 1.7112 202.369 1.71201 201.563 1.78365C200.769 1.85403 200.28 1.98778 199.892 2.20501C199.354 2.50654 198.9 2.9317 198.569 3.44345C198.331 3.81214 198.175 4.28329 198.071 5.05322C197.965 5.83556 197.923 6.84146 197.866 8.2593L197.785 10.2289C197.74 11.3178 197.746 11.6088 197.838 11.8436C197.961 12.1561 198.311 12.5099 198.626 12.6423C198.728 12.6848 198.825 12.7121 198.971 12.7294C198.961 12.4643 198.961 12.1595 198.961 11.8126V10.7493C198.961 10.2767 199.355 9.89368 199.84 9.89368C200.325 9.89368 200.718 10.2767 200.718 10.7493V11.7852C200.718 12.2791 200.718 12.6084 200.735 12.8629C200.751 13.0976 200.778 13.2135 200.806 13.2864C200.81 13.295 200.814 13.3036 200.817 13.3123C200.942 13.6091 201.172 13.8341 201.447 13.9497C201.484 13.9653 201.608 13.9981 201.917 14.0148C201.997 14.0191 202.083 14.0222 202.175 14.0243C202.166 13.8008 202.167 13.558 202.167 13.2904C202.167 13.2502 202.167 13.2093 202.167 13.1679L202.167 11.6929C202.167 11.2204 202.56 10.8374 203.045 10.8374C203.53 10.8374 203.923 11.2204 203.923 11.6929L203.923 13.1679C203.923 14.0059 203.932 14.2399 203.983 14.4079C204.124 14.8713 204.496 15.2338 204.971 15.3708C205.06 15.3964 205.167 15.4111 205.366 15.4195L205.366 12.3031C205.366 11.8306 205.759 11.4476 206.244 11.4476C206.729 11.4476 207.122 11.8306 207.122 12.3031L207.122 20.405C207.122 20.8931 207.528 21.2888 208.029 21.2888ZM208.029 23C206.558 23 205.366 21.8382 205.366 20.405L205.366 17.1324C205.032 17.1198 204.74 17.0886 204.473 17.0117C203.74 16.8002 203.118 16.345 202.705 15.7402C202.382 15.7399 202.081 15.7375 201.82 15.7233C201.475 15.7048 201.089 15.6629 200.751 15.5208C200.223 15.2986 199.78 14.9296 199.467 14.4681C198.91 14.4609 198.426 14.4212 197.932 14.214C197.181 13.8994 196.492 13.2 196.199 12.4569C195.959 11.8496 195.988 11.1734 196.024 10.3139C196.026 10.2635 196.028 10.2125 196.03 10.1608L196.112 8.14925C196.168 6.78282 196.213 5.69894 196.33 4.83035C196.45 3.94036 196.655 3.1947 197.083 2.53184C197.567 1.78388 198.23 1.16253 199.016 0.721741C199.713 0.3312 200.486 0.160999 201.404 0.079464C202.299 0 203.412 0 204.816 0H204.894C205.794 0 206.519 0 207.106 0.0431252C207.708 0.0875168 208.239 0.181126 208.732 0.407331C209.314 0.673901 209.738 0.984859 210.162 1.45521C210.529 1.863 210.777 2.3736 211 2.97367C211.222 3.56799 211.448 4.33366 211.734 5.2977L211.743 5.32864C211.794 5.50229 211.846 5.66916 211.898 5.82693C212.362 7.24098 213.054 8.18352 213.681 9.01105C213.704 9.04107 213.726 9.07132 213.749 9.10168C214.034 9.47681 214.332 9.86907 214.555 10.2616C214.806 10.7021 215 11.203 215 11.7852C215 12.5034 214.784 13.1359 214.37 13.6149C213.957 14.0932 213.39 14.365 212.794 14.4311C212.057 14.5128 211.306 14.2844 210.693 13.7961L210.693 20.405C210.693 21.8382 209.5 23 208.029 23Z" fill="white"/>
</svg>
